<svg width="48" height="48" viewBox="0 0 48 48" fill="none" xmlns="http://www.w3.org/2000/svg">
<g clip-path="url(#clip0_3_55)">
<rect width="48" height="8" fill="#130C45"/>
<rect y="8" width="48" height="8" fill="#130C45"/>
<rect y="16" width="48" height="8" fill="#130C45"/>
<rect y="24" width="48" height="8" fill="#130C45"/>
<rect y="32" width="48" height="8" fill="#130C45"/>
<rect y="40" width="48" height="8" fill="#130C45"/>
<g opacity="0.5" style="mix-blend-mode:lighten">
<rect width="48" height="8" fill="white"/>
</g>
<g opacity="0.4" style="mix-blend-mode:lighten">
<rect y="8" width="48" height="8" fill="white"/>
</g>
<g opacity="0.3" style="mix-blend-mode:lighten">
<rect y="16" width="48" height="8" fill="white"/>
</g>
<g opacity="0.2" style="mix-blend-mode:lighten">
<rect y="24" width="48" height="8" fill="white"/>
</g>
<rect opacity="0.1" y="32" width="48" height="8" fill="white"/>
<path d="M16.5938 32H9.15234V14.7266H16.5938C17.6641 14.7422 18.5547 14.8672 19.2656 15.1016C20.4766 15.5 21.457 16.2305 22.207 17.293C22.8086 18.1523 23.2188 19.082 23.4375 20.082C23.6562 21.082 23.7656 22.0352 23.7656 22.9414C23.7656 25.2383 23.3047 27.1836 22.3828 28.7773C21.1328 30.9258 19.2031 32 16.5938 32ZM19.2773 19.1328C18.7227 18.1953 17.625 17.7266 15.9844 17.7266H12.6562V29H15.9844C17.6875 29 18.875 28.1602 19.5469 26.4805C19.9141 25.5586 20.0977 24.4609 20.0977 23.1875C20.0977 21.4297 19.8242 20.0781 19.2773 19.1328ZM32.7656 29.5039C33.6172 29.5039 34.3086 29.4102 34.8398 29.2227C35.8477 28.8633 36.3516 28.1953 36.3516 27.2188C36.3516 26.6484 36.1016 26.207 35.6016 25.8945C35.1016 25.5898 34.3164 25.3203 33.2461 25.0859L31.418 24.6758C29.6211 24.2695 28.3789 23.8281 27.6914 23.3516C26.5273 22.5547 25.9453 21.3086 25.9453 19.6133C25.9453 18.0664 26.5078 16.7812 27.6328 15.7578C28.7578 14.7344 30.4102 14.2227 32.5898 14.2227C34.4102 14.2227 35.9609 14.707 37.2422 15.6758C38.5312 16.6367 39.207 18.0352 39.2695 19.8711H35.8008C35.7383 18.832 35.2852 18.0938 34.4414 17.6562C33.8789 17.3672 33.1797 17.2227 32.3438 17.2227C31.4141 17.2227 30.6719 17.4102 30.1172 17.7852C29.5625 18.1602 29.2852 18.6836 29.2852 19.3555C29.2852 19.9727 29.5586 20.4336 30.1055 20.7383C30.457 20.9414 31.207 21.1797 32.3555 21.4531L35.332 22.168C36.6367 22.4805 37.6211 22.8984 38.2852 23.4219C39.3164 24.2344 39.832 25.4102 39.832 26.9492C39.832 28.5273 39.2266 29.8398 38.0156 30.8867C36.8125 31.9258 35.1094 32.4453 32.9062 32.4453C30.6562 32.4453 28.8867 31.9336 27.5977 30.9102C26.3086 29.8789 25.6641 28.4648 25.6641 26.668H29.1094C29.2188 27.457 29.4336 28.0469 29.7539 28.4375C30.3398 29.1484 31.3438 29.5039 32.7656 29.5039Z" fill="white"/>
</g>
<defs>
<clipPath id="clip0_3_55">
<rect width="48" height="48" rx="12" fill="white"/>
</clipPath>
</defs>
</svg>
