<?xml version="1.0" encoding="UTF-8"?>
<svg id="Layer_2" data-name="Layer 2" xmlns="http://www.w3.org/2000/svg" viewBox="0 0 250 220.36">
  <defs>
    <style>
      .cls-1 {
        fill: #231f1f;
      }
    </style>
  </defs>
  <g id="Layer_1-2" data-name="Layer 1">
    <g>
      <path class="cls-1" d="M0,0v220.36h250V0H0ZM247.45,217.81H2.55V80.71h75.19l-38.96-37.5H2.55V2.55h56.44v36.23l18.75,41.93,18.75-41.93V2.55h150.95v215.26Z"/>
      <polygon class="cls-1" points="154.21 43.21 116.7 43.21 77.74 80.71 154.21 80.71 154.21 43.21"/>
      <polygon class="cls-1" points="23.33 148.56 60.83 148.56 77.74 80.71 23.33 111.05 23.33 148.56"/>
      <polygon class="cls-1" points="132.16 148.56 132.16 111.05 77.74 80.71 94.66 148.56 132.16 148.56"/>
      <polygon class="cls-1" points="136.43 171.51 132.12 167.04 120.12 178.64 120.12 167.24 113.91 167.24 113.91 201.64 120.12 201.64 120.12 191.21 138.12 201.25 141.14 195.83 122.18 185.26 136.43 171.51"/>
      <polygon class="cls-1" points="179.95 191.21 197.95 201.25 200.98 195.83 182.02 185.26 196.26 171.51 191.96 167.04 179.95 178.64 179.95 167.24 173.75 167.24 173.75 201.64 179.95 201.64 179.95 191.21"/>
      <path class="cls-1" d="M31.94,167.07l-8.62,34.57h7.61l1.96-8.85h11.35l1.96,8.85h7.66l-8.62-34.57h-13.31ZM34.15,187.22l3.06-13.78h2.73l3.06,13.78h-8.86Z"/>
      <polygon class="cls-1" points="66.66 167.07 59.24 167.07 59.24 201.64 75.52 201.64 75.52 195.74 66.66 195.74 66.66 167.07"/>
      <path class="cls-1" d="M99.6,188.84c0,4.24-2.44,7.14-6.75,7.14s-6.8-2.9-6.8-7.14v-21.66h-7.37v21.25c0,8.67,5.55,14.01,14.17,14.01s14.17-5.35,14.17-14.01v-21.25h-7.42v21.66Z"/>
      <polygon class="cls-1" points="167.01 172.97 167.01 167.07 144.51 167.07 144.51 201.64 167.54 201.64 167.54 195.74 151.93 195.74 151.93 186.06 166.34 186.06 166.34 180.76 151.93 180.76 151.93 172.97 167.01 172.97"/>
      <path class="cls-1" d="M217.09,202.44c8.67,0,14.17-5.35,14.17-14.01v-21.25h-7.42v21.66c0,4.24-2.44,7.14-6.75,7.14s-6.8-2.9-6.8-7.14v-21.66h-7.37v21.25c0,8.67,5.55,14.01,14.17,14.01Z"/>
    </g>
  </g>
</svg>