<?xml version="1.0" encoding="UTF-8"?>
<svg id="Layer_2" data-name="Layer 2" xmlns="http://www.w3.org/2000/svg" viewBox="0 0 250 42.57">
  <defs>
    <style>
      .cls-1 {
        fill: #f7bd00;
      }
    </style>
  </defs>
  <g id="Layer_1-2" data-name="Layer 1">
    <g>
      <polygon class="cls-1" points="135.98 5.38 130.81 0 116.37 13.95 116.37 .25 108.91 .25 108.91 41.61 116.37 41.61 116.37 29.07 138.01 41.14 141.65 34.62 118.86 21.91 135.98 5.38"/>
      <polygon class="cls-1" points="207.92 5.38 202.75 0 188.31 13.95 188.31 .25 180.85 .25 180.85 41.61 188.31 41.61 188.31 29.07 209.95 41.14 213.59 34.62 190.8 21.91 207.92 5.38"/>
      <path class="cls-1" d="M10.36.04L0,41.61h9.15l2.36-10.64h13.64l2.36,10.64h9.21L26.36.04H10.36ZM13.01,24.26l3.68-16.57h3.28l3.68,16.57h-10.65Z"/>
      <polygon class="cls-1" points="52.1 .04 43.18 .04 43.18 41.61 62.75 41.61 62.75 34.51 52.1 34.51 52.1 .04"/>
      <path class="cls-1" d="M91.7,26.22c0,5.1-2.94,8.59-8.12,8.59s-8.17-3.49-8.17-8.59V.17h-8.86v25.55c0,10.42,6.68,16.85,17.04,16.85s17.04-6.43,17.04-16.85V.17h-8.92v26.05Z"/>
      <polygon class="cls-1" points="154.62 22.88 171.95 22.88 171.95 16.5 154.62 16.5 154.62 7.14 172.75 7.14 172.75 .04 145.7 .04 145.7 41.61 173.38 41.61 173.38 34.51 154.62 34.51 154.62 22.88"/>
      <path class="cls-1" d="M241.08.17v26.05c0,5.1-2.94,8.59-8.12,8.59s-8.17-3.49-8.17-8.59V.17h-8.86v25.55c0,10.42,6.68,16.85,17.04,16.85s17.04-6.43,17.04-16.85V.17h-8.92Z"/>
    </g>
  </g>
</svg>