<?xml version="1.0" encoding="UTF-8"?>
<svg id="Layer_2" data-name="Layer 2" xmlns="http://www.w3.org/2000/svg" viewBox="0 0 1999.84 1500">
  <defs>
    <style>
      .cls-1 {
        fill: #231f20;
      }

      .cls-2 {
        fill: #174de3;
      }

      .cls-3 {
        fill: #f7bd00;
      }
    </style>
  </defs>
  <g id="Layer_1-2" data-name="Layer 1">
    <g>
      <polygon class="cls-1" points="250.56 612.3 0 612.3 0 375.23 250.56 612.3"/>
      <polygon class="cls-1" points="358.45 375.23 250.56 612.3 142.67 375.23 358.45 375.23"/>
      <polygon class="cls-1" points="500.97 375.37 500.97 612.3 250.56 612.3 500.97 375.37"/>
      <polygon class="cls-1" points="500.97 749.53 500.97 750.47 285.62 750.47 250.56 612.3 500.97 749.53"/>
      <polygon class="cls-2" points="250.56 612.3 215.5 750.47 0 750.47 0 749.63 250.56 612.3"/>
      <polygon class="cls-2" points="751.53 612.3 500.97 375.23 643.64 375.23 751.53 612.3"/>
      <polygon class="cls-1" points="1001.95 375.23 1001.95 375.37 751.53 612.3 859.43 375.23 1001.95 375.23"/>
      <polygon class="cls-1" points="1001.95 612.3 1001.95 749.53 751.53 612.3 1001.95 612.3"/>
      <polygon class="cls-1" points="786.59 750.47 716.47 750.47 751.53 612.3 786.59 750.47"/>
      <polygon class="cls-1" points="751.53 612.3 500.97 749.63 500.97 612.3 751.53 612.3"/>
      <polygon class="cls-1" points="751.39 138.17 1001.95 138.17 1001.95 375.23 751.39 138.17"/>
      <polygon class="cls-1" points="643.5 375.23 751.39 138.17 859.28 375.23 643.5 375.23"/>
      <polygon class="cls-1" points="500.97 375.09 500.97 138.17 751.39 138.17 500.97 375.09"/>
      <polygon class="cls-1" points="500.97 .94 500.97 0 716.33 0 751.39 138.17 500.97 .94"/>
      <polygon class="cls-1" points="751.39 138.17 786.45 0 1001.95 0 1001.95 .84 751.39 138.17"/>
      <polygon class="cls-2" points="250.42 138.17 500.97 375.23 358.31 375.23 250.42 138.17"/>
      <polygon class="cls-3" points="0 375.23 0 375.09 250.42 138.17 142.52 375.23 0 375.23"/>
      <polygon class="cls-1" points="0 138.17 0 .94 250.42 138.17 0 138.17"/>
      <polygon class="cls-1" points="215.36 0 285.48 0 250.42 138.17 215.36 0"/>
      <polygon class="cls-1" points="250.42 138.17 500.97 .84 500.97 138.17 250.42 138.17"/>
      <polygon class="cls-1" points="250.56 1361.83 0 1361.83 0 1124.77 250.56 1361.83"/>
      <polygon class="cls-1" points="358.45 1124.77 250.56 1361.83 142.67 1124.77 358.45 1124.77"/>
      <polygon class="cls-2" points="500.97 1124.91 500.97 1361.83 250.56 1361.83 500.97 1124.91"/>
      <polygon class="cls-1" points="500.97 1499.06 500.97 1500 285.62 1500 250.56 1361.83 500.97 1499.06"/>
      <polygon class="cls-3" points="250.56 1361.83 215.5 1500 0 1500 0 1499.16 250.56 1361.83"/>
      <polygon class="cls-1" points="751.53 1361.83 500.97 1124.77 643.64 1124.77 751.53 1361.83"/>
      <polygon class="cls-1" points="1001.95 1124.77 1001.95 1124.91 751.53 1361.83 859.43 1124.77 1001.95 1124.77"/>
      <polygon class="cls-1" points="1001.95 1361.83 1001.95 1499.06 751.53 1361.83 1001.95 1361.83"/>
      <polygon class="cls-1" points="786.59 1500 716.47 1500 751.53 1361.83 786.59 1500"/>
      <polygon class="cls-1" points="751.53 1361.83 500.97 1499.16 500.97 1361.83 751.53 1361.83"/>
      <polygon class="cls-1" points="751.39 887.7 1001.95 887.7 1001.95 1124.77 751.39 887.7"/>
      <polygon class="cls-1" points="643.5 1124.77 751.39 887.7 859.28 1124.77 643.5 1124.77"/>
      <polygon class="cls-3" points="500.97 1124.63 500.97 887.7 751.39 887.7 500.97 1124.63"/>
      <polygon class="cls-1" points="500.97 750.47 500.97 749.53 716.33 749.53 751.39 887.7 500.97 750.47"/>
      <polygon class="cls-2" points="751.39 887.7 786.45 749.53 1001.95 749.53 1001.95 750.37 751.39 887.7"/>
      <polygon class="cls-1" points="250.42 887.7 500.97 1124.77 358.31 1124.77 250.42 887.7"/>
      <polygon class="cls-1" points="0 1124.77 0 1124.63 250.42 887.7 142.52 1124.77 0 1124.77"/>
      <polygon class="cls-1" points="0 887.7 0 750.47 250.42 887.7 0 887.7"/>
      <polygon class="cls-1" points="215.36 749.53 285.48 749.53 250.42 887.7 215.36 749.53"/>
      <polygon class="cls-1" points="250.42 887.7 500.97 750.37 500.97 887.7 250.42 887.7"/>
      <polygon class="cls-1" points="1248.45 612.3 997.89 612.3 997.89 375.23 1248.45 612.3"/>
      <polygon class="cls-3" points="1356.34 375.23 1248.45 612.3 1140.56 375.23 1356.34 375.23"/>
      <polygon class="cls-1" points="1498.87 375.37 1498.87 612.3 1248.45 612.3 1498.87 375.37"/>
      <polygon class="cls-1" points="1498.87 749.53 1498.87 750.47 1283.51 750.47 1248.45 612.3 1498.87 749.53"/>
      <polygon class="cls-1" points="1248.45 612.3 1213.39 750.47 997.89 750.47 997.89 749.63 1248.45 612.3"/>
      <polygon class="cls-2" points="1749.43 612.3 1498.87 375.23 1641.53 375.23 1749.43 612.3"/>
      <polygon class="cls-1" points="1999.84 375.23 1999.84 375.37 1749.43 612.3 1857.32 375.23 1999.84 375.23"/>
      <polygon class="cls-1" points="1999.84 612.3 1999.84 749.53 1749.43 612.3 1999.84 612.3"/>
      <polygon class="cls-1" points="1784.49 750.47 1714.37 750.47 1749.43 612.3 1784.49 750.47"/>
      <polygon class="cls-1" points="1749.43 612.3 1498.87 749.63 1498.87 612.3 1749.43 612.3"/>
      <polygon class="cls-1" points="1749.28 138.17 1999.84 138.17 1999.84 375.23 1749.28 138.17"/>
      <polygon class="cls-1" points="1641.39 375.23 1749.28 138.17 1857.18 375.23 1641.39 375.23"/>
      <polygon class="cls-1" points="1498.87 375.09 1498.87 138.17 1749.28 138.17 1498.87 375.09"/>
      <polygon class="cls-3" points="1498.87 .94 1498.87 0 1714.22 0 1749.28 138.17 1498.87 .94"/>
      <polygon class="cls-1" points="1749.28 138.17 1784.34 0 1999.84 0 1999.84 .84 1749.28 138.17"/>
      <polygon class="cls-1" points="1248.31 138.17 1498.87 375.23 1356.2 375.23 1248.31 138.17"/>
      <polygon class="cls-1" points="997.89 375.23 997.89 375.09 1248.31 138.17 1140.42 375.23 997.89 375.23"/>
      <polygon class="cls-1" points="997.89 138.17 997.89 .94 1248.31 138.17 997.89 138.17"/>
      <polygon class="cls-1" points="1213.25 0 1283.37 0 1248.31 138.17 1213.25 0"/>
      <polygon class="cls-2" points="1248.31 138.17 1498.87 .84 1498.87 138.17 1248.31 138.17"/>
      <polygon class="cls-1" points="1248.45 1361.83 997.89 1361.83 997.89 1124.77 1248.45 1361.83"/>
      <polygon class="cls-2" points="1356.34 1124.77 1248.45 1361.83 1140.56 1124.77 1356.34 1124.77"/>
      <polygon class="cls-1" points="1498.87 1124.91 1498.87 1361.83 1248.45 1361.83 1498.87 1124.91"/>
      <polygon class="cls-1" points="1498.87 1499.06 1498.87 1500 1283.51 1500 1248.45 1361.83 1498.87 1499.06"/>
      <polygon class="cls-1" points="1248.45 1361.83 1213.39 1500 997.89 1500 997.89 1499.16 1248.45 1361.83"/>
      <polygon class="cls-1" points="1749.43 1361.83 1498.87 1124.77 1641.53 1124.77 1749.43 1361.83"/>
      <polygon class="cls-1" points="1999.84 1124.77 1999.84 1124.91 1749.43 1361.83 1857.32 1124.77 1999.84 1124.77"/>
      <polygon class="cls-2" points="1999.84 1361.83 1999.84 1499.06 1749.43 1361.83 1999.84 1361.83"/>
      <polygon class="cls-1" points="1784.49 1500 1714.37 1500 1749.43 1361.83 1784.49 1500"/>
      <polygon class="cls-1" points="1749.43 1361.83 1498.87 1499.16 1498.87 1361.83 1749.43 1361.83"/>
      <polygon class="cls-1" points="1749.28 887.7 1999.84 887.7 1999.84 1124.77 1749.28 887.7"/>
      <polygon class="cls-2" points="1641.39 1124.77 1749.28 887.7 1857.18 1124.77 1641.39 1124.77"/>
      <polygon class="cls-1" points="1498.87 1124.63 1498.87 887.7 1749.28 887.7 1498.87 1124.63"/>
      <polygon class="cls-1" points="1498.87 750.47 1498.87 749.53 1714.22 749.53 1749.28 887.7 1498.87 750.47"/>
      <polygon class="cls-1" points="1749.28 887.7 1784.34 749.53 1999.84 749.53 1999.84 750.37 1749.28 887.7"/>
      <polygon class="cls-1" points="1248.31 887.7 1498.87 1124.77 1356.2 1124.77 1248.31 887.7"/>
      <polygon class="cls-3" points="997.89 1124.77 997.89 1124.63 1248.31 887.7 1140.42 1124.77 997.89 1124.77"/>
      <polygon class="cls-1" points="997.89 887.7 997.89 750.47 1248.31 887.7 997.89 887.7"/>
      <polygon class="cls-1" points="1213.25 749.53 1283.37 749.53 1248.31 887.7 1213.25 749.53"/>
      <polygon class="cls-1" points="1248.31 887.7 1498.87 750.37 1498.87 887.7 1248.31 887.7"/>
    </g>
  </g>
</svg>