<?xml version="1.0" encoding="UTF-8"?>
<svg id="Layer_2" data-name="Layer 2" xmlns="http://www.w3.org/2000/svg" viewBox="0 0 2000 1500">
  <defs>
    <style>
      .cls-1 {
        fill: #231f20;
      }

      .cls-2 {
        fill: #174de3;
      }

      .cls-3 {
        fill: #f7bd00;
      }
    </style>
  </defs>
  <g id="Layer_1-2" data-name="Layer 1">
    <g>
      <g>
        <polygon class="cls-1" points="312.95 311.13 188.25 311.13 188.25 250.56 249.42 250.56 312.95 311.13"/>
        <polygon class="cls-1" points="343.53 182.84 343.53 243.41 312.95 311.13 282.37 243.41 282.37 182.84 343.53 182.84"/>
        <polygon class="cls-2" points="437.65 250.56 437.65 311.13 312.95 311.13 376.48 250.56 437.65 250.56"/>
        <polygon class="cls-1" points="312.95 311.13 285.36 420.71 224.21 420.71 224.21 360.14 312.95 311.13"/>
        <polygon class="cls-3" points="401.69 360.14 401.69 420.71 340.54 420.71 312.95 311.13 401.69 360.14"/>
      </g>
      <g>
        <polygon class="cls-3" points="312.95 109.58 437.65 109.58 437.65 170.15 376.48 170.15 312.95 109.58"/>
        <polygon class="cls-2" points="282.37 237.87 282.37 177.3 312.95 109.58 343.53 177.3 343.53 237.87 282.37 237.87"/>
        <polygon class="cls-3" points="188.25 170.15 188.25 109.58 312.95 109.58 249.42 170.15 188.25 170.15"/>
        <polygon class="cls-2" points="312.95 109.58 340.54 0 401.69 0 401.69 60.57 312.95 109.58"/>
        <polygon class="cls-1" points="224.21 60.57 224.21 0 285.36 0 312.95 109.58 224.21 60.57"/>
      </g>
      <g>
        <polygon class="cls-3" points="124.7 311.13 0 311.13 0 250.56 61.17 250.56 124.7 311.13"/>
        <polygon class="cls-1" points="155.28 182.84 155.28 243.41 124.7 311.13 94.12 243.41 94.12 182.84 155.28 182.84"/>
        <polygon class="cls-2" points="249.4 250.56 249.4 311.13 124.7 311.13 188.23 250.56 249.4 250.56"/>
        <polygon class="cls-2" points="124.7 311.13 97.11 420.71 35.96 420.71 35.96 360.14 124.7 311.13"/>
        <polygon class="cls-1" points="213.44 360.14 213.44 420.71 152.29 420.71 124.7 311.13 213.44 360.14"/>
      </g>
      <g>
        <polygon class="cls-2" points="124.7 109.58 249.4 109.58 249.4 170.15 188.23 170.15 124.7 109.58"/>
        <polygon class="cls-1" points="94.12 237.87 94.12 177.3 124.7 109.58 155.28 177.3 155.28 237.87 94.12 237.87"/>
        <polygon class="cls-1" points="0 170.15 0 109.58 124.7 109.58 61.17 170.15 0 170.15"/>
        <polygon class="cls-3" points="124.7 109.58 152.29 0 213.44 0 213.44 60.57 124.7 109.58"/>
        <polygon class="cls-2" points="35.96 60.57 35.96 0 97.11 0 124.7 109.58 35.96 60.57"/>
      </g>
      <g>
        <polygon class="cls-3" points="750.6 311.13 625.9 311.13 625.9 250.56 687.07 250.56 750.6 311.13"/>
        <polygon class="cls-1" points="781.18 182.84 781.18 243.41 750.6 311.13 720.02 243.41 720.02 182.84 781.18 182.84"/>
        <polygon class="cls-2" points="875.3 250.56 875.3 311.13 750.6 311.13 814.13 250.56 875.3 250.56"/>
        <polygon class="cls-1" points="750.6 311.13 723.01 420.71 661.86 420.71 661.86 360.14 750.6 311.13"/>
        <polygon class="cls-3" points="839.34 360.14 839.34 420.71 778.19 420.71 750.6 311.13 839.34 360.14"/>
      </g>
      <g>
        <polygon class="cls-1" points="750.6 109.58 875.3 109.58 875.3 170.15 814.13 170.15 750.6 109.58"/>
        <polygon class="cls-2" points="720.02 237.87 720.02 177.3 750.6 109.58 781.18 177.3 781.18 237.87 720.02 237.87"/>
        <polygon class="cls-3" points="625.9 170.15 625.9 109.58 750.6 109.58 687.07 170.15 625.9 170.15"/>
        <polygon class="cls-2" points="750.6 109.58 778.19 0 839.34 0 839.34 60.57 750.6 109.58"/>
        <polygon class="cls-1" points="661.86 60.57 661.86 0 723.01 0 750.6 109.58 661.86 60.57"/>
      </g>
      <g>
        <polygon class="cls-3" points="562.35 311.13 437.65 311.13 437.65 250.56 498.82 250.56 562.35 311.13"/>
        <polygon class="cls-2" points="592.93 182.84 592.93 243.41 562.35 311.13 531.77 243.41 531.77 182.84 592.93 182.84"/>
        <polygon class="cls-2" points="687.05 250.56 687.05 311.13 562.35 311.13 625.88 250.56 687.05 250.56"/>
        <polygon class="cls-2" points="562.35 311.13 534.76 420.71 473.61 420.71 473.61 360.14 562.35 311.13"/>
        <polygon class="cls-1" points="651.09 360.14 651.09 420.71 589.94 420.71 562.35 311.13 651.09 360.14"/>
      </g>
      <g>
        <polygon class="cls-2" points="562.35 109.58 687.05 109.58 687.05 170.15 625.88 170.15 562.35 109.58"/>
        <polygon class="cls-1" points="531.77 237.87 531.77 177.3 562.35 109.58 592.93 177.3 592.93 237.87 531.77 237.87"/>
        <polygon class="cls-1" points="437.65 170.15 437.65 109.58 562.35 109.58 498.82 170.15 437.65 170.15"/>
        <polygon class="cls-3" points="562.35 109.58 589.94 0 651.09 0 651.09 60.57 562.35 109.58"/>
        <polygon class="cls-2" points="473.61 60.57 473.61 0 534.76 0 562.35 109.58 473.61 60.57"/>
      </g>
      <g>
        <polygon class="cls-1" points="312.95 731.84 188.25 731.84 188.25 671.27 249.42 671.27 312.95 731.84"/>
        <polygon class="cls-1" points="343.53 603.55 343.53 664.12 312.95 731.84 282.37 664.12 282.37 603.55 343.53 603.55"/>
        <polygon class="cls-2" points="437.65 671.27 437.65 731.84 312.95 731.84 376.48 671.27 437.65 671.27"/>
        <polygon class="cls-1" points="312.95 731.84 285.36 841.42 224.21 841.42 224.21 780.85 312.95 731.84"/>
        <polygon class="cls-3" points="401.69 780.85 401.69 841.42 340.54 841.42 312.95 731.84 401.69 780.85"/>
      </g>
      <g>
        <polygon class="cls-3" points="312.95 530.29 437.65 530.29 437.65 590.86 376.48 590.86 312.95 530.29"/>
        <polygon class="cls-2" points="282.37 658.58 282.37 598.01 312.95 530.29 343.53 598.01 343.53 658.58 282.37 658.58"/>
        <polygon class="cls-3" points="188.25 590.86 188.25 530.29 312.95 530.29 249.42 590.86 188.25 590.86"/>
        <polygon class="cls-2" points="312.95 530.29 340.54 420.71 401.69 420.71 401.69 481.28 312.95 530.29"/>
        <polygon class="cls-1" points="224.21 481.28 224.21 420.71 285.36 420.71 312.95 530.29 224.21 481.28"/>
      </g>
      <g>
        <polygon class="cls-3" points="124.7 731.84 0 731.84 0 671.27 61.17 671.27 124.7 731.84"/>
        <polygon class="cls-1" points="155.28 603.55 155.28 664.12 124.7 731.84 94.12 664.12 94.12 603.55 155.28 603.55"/>
        <polygon class="cls-2" points="249.4 671.27 249.4 731.84 124.7 731.84 188.23 671.27 249.4 671.27"/>
        <polygon class="cls-2" points="124.7 731.84 97.11 841.42 35.96 841.42 35.96 780.85 124.7 731.84"/>
        <polygon class="cls-1" points="213.44 780.85 213.44 841.42 152.29 841.42 124.7 731.84 213.44 780.85"/>
      </g>
      <g>
        <polygon class="cls-2" points="124.7 530.29 249.4 530.29 249.4 590.86 188.23 590.86 124.7 530.29"/>
        <polygon class="cls-1" points="94.12 658.58 94.12 598.01 124.7 530.29 155.28 598.01 155.28 658.58 94.12 658.58"/>
        <polygon class="cls-1" points="0 590.86 0 530.29 124.7 530.29 61.17 590.86 0 590.86"/>
        <polygon class="cls-3" points="124.7 530.29 152.29 420.71 213.44 420.71 213.44 481.28 124.7 530.29"/>
        <polygon class="cls-2" points="35.96 481.28 35.96 420.71 97.11 420.71 124.7 530.29 35.96 481.28"/>
      </g>
      <g>
        <polygon class="cls-3" points="750.6 731.84 625.9 731.84 625.9 671.27 687.07 671.27 750.6 731.84"/>
        <polygon class="cls-1" points="781.18 603.55 781.18 664.12 750.6 731.84 720.02 664.12 720.02 603.55 781.18 603.55"/>
        <polygon class="cls-2" points="875.3 671.27 875.3 731.84 750.6 731.84 814.13 671.27 875.3 671.27"/>
        <polygon class="cls-1" points="750.6 731.84 723.01 841.42 661.86 841.42 661.86 780.85 750.6 731.84"/>
        <polygon class="cls-3" points="839.34 780.85 839.34 841.42 778.19 841.42 750.6 731.84 839.34 780.85"/>
      </g>
      <g>
        <polygon class="cls-1" points="750.6 530.29 875.3 530.29 875.3 590.86 814.13 590.86 750.6 530.29"/>
        <polygon class="cls-2" points="720.02 658.58 720.02 598.01 750.6 530.29 781.18 598.01 781.18 658.58 720.02 658.58"/>
        <polygon class="cls-3" points="625.9 590.86 625.9 530.29 750.6 530.29 687.07 590.86 625.9 590.86"/>
        <polygon class="cls-2" points="750.6 530.29 778.19 420.71 839.34 420.71 839.34 481.28 750.6 530.29"/>
        <polygon class="cls-1" points="661.86 481.28 661.86 420.71 723.01 420.71 750.6 530.29 661.86 481.28"/>
      </g>
      <g>
        <polygon class="cls-3" points="562.35 731.84 437.65 731.84 437.65 671.27 498.82 671.27 562.35 731.84"/>
        <polygon class="cls-2" points="592.93 603.55 592.93 664.12 562.35 731.84 531.77 664.12 531.77 603.55 592.93 603.55"/>
        <polygon class="cls-2" points="687.05 671.27 687.05 731.84 562.35 731.84 625.88 671.27 687.05 671.27"/>
        <polygon class="cls-2" points="562.35 731.84 534.76 841.42 473.61 841.42 473.61 780.85 562.35 731.84"/>
        <polygon class="cls-1" points="651.09 780.85 651.09 841.42 589.94 841.42 562.35 731.84 651.09 780.85"/>
      </g>
      <g>
        <polygon class="cls-2" points="562.35 530.29 687.05 530.29 687.05 590.86 625.88 590.86 562.35 530.29"/>
        <polygon class="cls-1" points="531.77 658.58 531.77 598.01 562.35 530.29 592.93 598.01 592.93 658.58 531.77 658.58"/>
        <polygon class="cls-1" points="437.65 590.86 437.65 530.29 562.35 530.29 498.82 590.86 437.65 590.86"/>
        <polygon class="cls-3" points="562.35 530.29 589.94 420.71 651.09 420.71 651.09 481.28 562.35 530.29"/>
        <polygon class="cls-2" points="473.61 481.28 473.61 420.71 534.76 420.71 562.35 530.29 473.61 481.28"/>
      </g>
      <g>
        <polygon class="cls-1" points="312.95 1152.55 188.25 1152.55 188.25 1091.98 249.42 1091.98 312.95 1152.55"/>
        <polygon class="cls-1" points="343.53 1024.26 343.53 1084.83 312.95 1152.55 282.37 1084.83 282.37 1024.26 343.53 1024.26"/>
        <polygon class="cls-2" points="437.65 1091.98 437.65 1152.55 312.95 1152.55 376.48 1091.98 437.65 1091.98"/>
        <polygon class="cls-1" points="312.95 1152.55 285.36 1262.13 224.21 1262.13 224.21 1201.56 312.95 1152.55"/>
        <polygon class="cls-3" points="401.69 1201.56 401.69 1262.13 340.54 1262.13 312.95 1152.55 401.69 1201.56"/>
      </g>
      <g>
        <polygon class="cls-3" points="312.95 951 437.65 951 437.65 1011.57 376.48 1011.57 312.95 951"/>
        <polygon class="cls-2" points="282.37 1079.29 282.37 1018.72 312.95 951 343.53 1018.72 343.53 1079.29 282.37 1079.29"/>
        <polygon class="cls-3" points="188.25 1011.57 188.25 951 312.95 951 249.42 1011.57 188.25 1011.57"/>
        <polygon class="cls-2" points="312.95 951 340.54 841.42 401.69 841.42 401.69 901.99 312.95 951"/>
        <polygon class="cls-1" points="224.21 901.99 224.21 841.42 285.36 841.42 312.95 951 224.21 901.99"/>
      </g>
      <g>
        <polygon class="cls-3" points="124.7 1152.55 0 1152.55 0 1091.98 61.17 1091.98 124.7 1152.55"/>
        <polygon class="cls-1" points="155.28 1024.26 155.28 1084.83 124.7 1152.55 94.12 1084.83 94.12 1024.26 155.28 1024.26"/>
        <polygon class="cls-2" points="249.4 1091.98 249.4 1152.55 124.7 1152.55 188.23 1091.98 249.4 1091.98"/>
        <polygon class="cls-2" points="124.7 1152.55 97.11 1262.13 35.96 1262.13 35.96 1201.56 124.7 1152.55"/>
        <polygon class="cls-1" points="213.44 1201.56 213.44 1262.13 152.29 1262.13 124.7 1152.55 213.44 1201.56"/>
      </g>
      <g>
        <polygon class="cls-2" points="124.7 951 249.4 951 249.4 1011.57 188.23 1011.57 124.7 951"/>
        <polygon class="cls-1" points="94.12 1079.29 94.12 1018.72 124.7 951 155.28 1018.72 155.28 1079.29 94.12 1079.29"/>
        <polygon class="cls-1" points="0 1011.57 0 951 124.7 951 61.17 1011.57 0 1011.57"/>
        <polygon class="cls-3" points="124.7 951 152.29 841.42 213.44 841.42 213.44 901.99 124.7 951"/>
        <polygon class="cls-2" points="35.96 901.99 35.96 841.42 97.11 841.42 124.7 951 35.96 901.99"/>
      </g>
      <g>
        <polygon class="cls-3" points="750.6 1152.55 625.9 1152.55 625.9 1091.98 687.07 1091.98 750.6 1152.55"/>
        <polygon class="cls-1" points="781.18 1024.26 781.18 1084.83 750.6 1152.55 720.02 1084.83 720.02 1024.26 781.18 1024.26"/>
        <polygon class="cls-2" points="875.3 1091.98 875.3 1152.55 750.6 1152.55 814.13 1091.98 875.3 1091.98"/>
        <polygon class="cls-1" points="750.6 1152.55 723.01 1262.13 661.86 1262.13 661.86 1201.56 750.6 1152.55"/>
        <polygon class="cls-3" points="839.34 1201.56 839.34 1262.13 778.19 1262.13 750.6 1152.55 839.34 1201.56"/>
      </g>
      <g>
        <polygon class="cls-1" points="750.6 951 875.3 951 875.3 1011.57 814.13 1011.57 750.6 951"/>
        <polygon class="cls-2" points="720.02 1079.29 720.02 1018.72 750.6 951 781.18 1018.72 781.18 1079.29 720.02 1079.29"/>
        <polygon class="cls-3" points="625.9 1011.57 625.9 951 750.6 951 687.07 1011.57 625.9 1011.57"/>
        <polygon class="cls-2" points="750.6 951 778.19 841.42 839.34 841.42 839.34 901.99 750.6 951"/>
        <polygon class="cls-1" points="661.86 901.99 661.86 841.42 723.01 841.42 750.6 951 661.86 901.99"/>
      </g>
      <g>
        <polygon class="cls-3" points="562.35 1152.55 437.65 1152.55 437.65 1091.98 498.82 1091.98 562.35 1152.55"/>
        <polygon class="cls-2" points="592.93 1024.26 592.93 1084.83 562.35 1152.55 531.77 1084.83 531.77 1024.26 592.93 1024.26"/>
        <polygon class="cls-2" points="687.05 1091.98 687.05 1152.55 562.35 1152.55 625.88 1091.98 687.05 1091.98"/>
        <polygon class="cls-2" points="562.35 1152.55 534.76 1262.13 473.61 1262.13 473.61 1201.56 562.35 1152.55"/>
        <polygon class="cls-1" points="651.09 1201.56 651.09 1262.13 589.94 1262.13 562.35 1152.55 651.09 1201.56"/>
      </g>
      <g>
        <polygon class="cls-2" points="562.35 951 687.05 951 687.05 1011.57 625.88 1011.57 562.35 951"/>
        <polygon class="cls-1" points="531.77 1079.29 531.77 1018.72 562.35 951 592.93 1018.72 592.93 1079.29 531.77 1079.29"/>
        <polygon class="cls-1" points="437.65 1011.57 437.65 951 562.35 951 498.82 1011.57 437.65 1011.57"/>
        <polygon class="cls-3" points="562.35 951 589.94 841.42 651.09 841.42 651.09 901.99 562.35 951"/>
        <polygon class="cls-2" points="473.61 901.99 473.61 841.42 534.76 841.42 562.35 951 473.61 901.99"/>
      </g>
      <g>
        <polygon class="cls-3" points="312.95 1371.71 437.65 1371.71 437.65 1432.28 376.48 1432.28 312.95 1371.71"/>
        <polygon class="cls-2" points="282.37 1500 282.37 1439.43 312.95 1371.71 343.53 1439.43 343.53 1500 282.37 1500"/>
        <polygon class="cls-3" points="188.25 1432.28 188.25 1371.71 312.95 1371.71 249.42 1432.28 188.25 1432.28"/>
        <polygon class="cls-2" points="312.95 1371.71 340.54 1262.13 401.69 1262.13 401.69 1322.7 312.95 1371.71"/>
        <polygon class="cls-1" points="224.21 1322.7 224.21 1262.13 285.36 1262.13 312.95 1371.71 224.21 1322.7"/>
      </g>
      <g>
        <polygon class="cls-2" points="124.7 1371.71 249.4 1371.71 249.4 1432.28 188.23 1432.28 124.7 1371.71"/>
        <polygon class="cls-1" points="94.12 1500 94.12 1439.43 124.7 1371.71 155.28 1439.43 155.28 1500 94.12 1500"/>
        <polygon class="cls-1" points="0 1432.28 0 1371.71 124.7 1371.71 61.17 1432.28 0 1432.28"/>
        <polygon class="cls-3" points="124.7 1371.71 152.29 1262.13 213.44 1262.13 213.44 1322.7 124.7 1371.71"/>
        <polygon class="cls-2" points="35.96 1322.7 35.96 1262.13 97.11 1262.13 124.7 1371.71 35.96 1322.7"/>
      </g>
      <g>
        <polygon class="cls-1" points="750.6 1371.71 875.3 1371.71 875.3 1432.28 814.13 1432.28 750.6 1371.71"/>
        <polygon class="cls-2" points="720.02 1500 720.02 1439.43 750.6 1371.71 781.18 1439.43 781.18 1500 720.02 1500"/>
        <polygon class="cls-3" points="625.9 1432.28 625.9 1371.71 750.6 1371.71 687.07 1432.28 625.9 1432.28"/>
        <polygon class="cls-2" points="750.6 1371.71 778.19 1262.13 839.34 1262.13 839.34 1322.7 750.6 1371.71"/>
        <polygon class="cls-1" points="661.86 1322.7 661.86 1262.13 723.01 1262.13 750.6 1371.71 661.86 1322.7"/>
      </g>
      <g>
        <polygon class="cls-2" points="562.35 1371.71 687.05 1371.71 687.05 1432.28 625.88 1432.28 562.35 1371.71"/>
        <polygon class="cls-1" points="531.77 1500 531.77 1439.43 562.35 1371.71 592.93 1439.43 592.93 1500 531.77 1500"/>
        <polygon class="cls-1" points="437.65 1432.28 437.65 1371.71 562.35 1371.71 498.82 1432.28 437.65 1432.28"/>
        <polygon class="cls-3" points="562.35 1371.71 589.94 1262.13 651.09 1262.13 651.09 1322.7 562.35 1371.71"/>
        <polygon class="cls-2" points="473.61 1322.7 473.61 1262.13 534.76 1262.13 562.35 1371.71 473.61 1322.7"/>
      </g>
      <g>
        <polygon class="cls-1" points="1188.25 311.13 1063.55 311.13 1063.55 250.56 1124.72 250.56 1188.25 311.13"/>
        <polygon class="cls-1" points="1218.83 182.84 1218.83 243.41 1188.25 311.13 1157.67 243.41 1157.67 182.84 1218.83 182.84"/>
        <polygon class="cls-2" points="1312.95 250.56 1312.95 311.13 1188.25 311.13 1251.78 250.56 1312.95 250.56"/>
        <polygon class="cls-1" points="1188.25 311.13 1160.66 420.71 1099.51 420.71 1099.51 360.14 1188.25 311.13"/>
        <polygon class="cls-3" points="1276.99 360.14 1276.99 420.71 1215.84 420.71 1188.25 311.13 1276.99 360.14"/>
      </g>
      <g>
        <polygon class="cls-3" points="1188.25 109.58 1312.95 109.58 1312.95 170.15 1251.78 170.15 1188.25 109.58"/>
        <polygon class="cls-2" points="1157.67 237.87 1157.67 177.3 1188.25 109.58 1218.83 177.3 1218.83 237.87 1157.67 237.87"/>
        <polygon class="cls-3" points="1063.55 170.15 1063.55 109.58 1188.25 109.58 1124.72 170.15 1063.55 170.15"/>
        <polygon class="cls-2" points="1188.25 109.58 1215.84 0 1276.99 0 1276.99 60.57 1188.25 109.58"/>
        <polygon class="cls-1" points="1099.51 60.57 1099.51 0 1160.66 0 1188.25 109.58 1099.51 60.57"/>
      </g>
      <g>
        <polygon class="cls-3" points="1000 311.13 875.3 311.13 875.3 250.56 936.47 250.56 1000 311.13"/>
        <polygon class="cls-1" points="1030.58 182.84 1030.58 243.41 1000 311.13 969.42 243.41 969.42 182.84 1030.58 182.84"/>
        <polygon class="cls-2" points="1124.7 250.56 1124.7 311.13 1000 311.13 1063.53 250.56 1124.7 250.56"/>
        <polygon class="cls-2" points="1000 311.13 972.41 420.71 911.26 420.71 911.26 360.14 1000 311.13"/>
        <polygon class="cls-1" points="1088.74 360.14 1088.74 420.71 1027.59 420.71 1000 311.13 1088.74 360.14"/>
      </g>
      <g>
        <polygon class="cls-2" points="1000 109.58 1124.7 109.58 1124.7 170.15 1063.53 170.15 1000 109.58"/>
        <polygon class="cls-1" points="969.42 237.87 969.42 177.3 1000 109.58 1030.58 177.3 1030.58 237.87 969.42 237.87"/>
        <polygon class="cls-1" points="875.3 170.15 875.3 109.58 1000 109.58 936.47 170.15 875.3 170.15"/>
        <polygon class="cls-3" points="1000 109.58 1027.59 0 1088.74 0 1088.74 60.57 1000 109.58"/>
        <polygon class="cls-2" points="911.26 60.57 911.26 0 972.41 0 1000 109.58 911.26 60.57"/>
      </g>
      <g>
        <polygon class="cls-1" points="1188.25 731.84 1063.55 731.84 1063.55 671.27 1124.72 671.27 1188.25 731.84"/>
        <polygon class="cls-1" points="1218.83 603.55 1218.83 664.12 1188.25 731.84 1157.67 664.12 1157.67 603.55 1218.83 603.55"/>
        <polygon class="cls-2" points="1312.95 671.27 1312.95 731.84 1188.25 731.84 1251.78 671.27 1312.95 671.27"/>
        <polygon class="cls-1" points="1188.25 731.84 1160.66 841.42 1099.51 841.42 1099.51 780.85 1188.25 731.84"/>
        <polygon class="cls-3" points="1276.99 780.85 1276.99 841.42 1215.84 841.42 1188.25 731.84 1276.99 780.85"/>
      </g>
      <g>
        <polygon class="cls-3" points="1188.25 530.29 1312.95 530.29 1312.95 590.86 1251.78 590.86 1188.25 530.29"/>
        <polygon class="cls-2" points="1157.67 658.58 1157.67 598.01 1188.25 530.29 1218.83 598.01 1218.83 658.58 1157.67 658.58"/>
        <polygon class="cls-3" points="1063.55 590.86 1063.55 530.29 1188.25 530.29 1124.72 590.86 1063.55 590.86"/>
        <polygon class="cls-2" points="1188.25 530.29 1215.84 420.71 1276.99 420.71 1276.99 481.28 1188.25 530.29"/>
        <polygon class="cls-1" points="1099.51 481.28 1099.51 420.71 1160.66 420.71 1188.25 530.29 1099.51 481.28"/>
      </g>
      <g>
        <polygon class="cls-3" points="1000 731.84 875.3 731.84 875.3 671.27 936.47 671.27 1000 731.84"/>
        <polygon class="cls-1" points="1030.58 603.55 1030.58 664.12 1000 731.84 969.42 664.12 969.42 603.55 1030.58 603.55"/>
        <polygon class="cls-2" points="1124.7 671.27 1124.7 731.84 1000 731.84 1063.53 671.27 1124.7 671.27"/>
        <polygon class="cls-2" points="1000 731.84 972.41 841.42 911.26 841.42 911.26 780.85 1000 731.84"/>
        <polygon class="cls-1" points="1088.74 780.85 1088.74 841.42 1027.59 841.42 1000 731.84 1088.74 780.85"/>
      </g>
      <g>
        <polygon class="cls-2" points="1000 530.29 1124.7 530.29 1124.7 590.86 1063.53 590.86 1000 530.29"/>
        <polygon class="cls-1" points="969.42 658.58 969.42 598.01 1000 530.29 1030.58 598.01 1030.58 658.58 969.42 658.58"/>
        <polygon class="cls-1" points="875.3 590.86 875.3 530.29 1000 530.29 936.47 590.86 875.3 590.86"/>
        <polygon class="cls-3" points="1000 530.29 1027.59 420.71 1088.74 420.71 1088.74 481.28 1000 530.29"/>
        <polygon class="cls-2" points="911.26 481.28 911.26 420.71 972.41 420.71 1000 530.29 911.26 481.28"/>
      </g>
      <g>
        <polygon class="cls-1" points="1188.25 1152.55 1063.55 1152.55 1063.55 1091.98 1124.72 1091.98 1188.25 1152.55"/>
        <polygon class="cls-1" points="1218.83 1024.26 1218.83 1084.83 1188.25 1152.55 1157.67 1084.83 1157.67 1024.26 1218.83 1024.26"/>
        <polygon class="cls-2" points="1312.95 1091.98 1312.95 1152.55 1188.25 1152.55 1251.78 1091.98 1312.95 1091.98"/>
        <polygon class="cls-1" points="1188.25 1152.55 1160.66 1262.13 1099.51 1262.13 1099.51 1201.56 1188.25 1152.55"/>
        <polygon class="cls-3" points="1276.99 1201.56 1276.99 1262.13 1215.84 1262.13 1188.25 1152.55 1276.99 1201.56"/>
      </g>
      <g>
        <polygon class="cls-3" points="1188.25 951 1312.95 951 1312.95 1011.57 1251.78 1011.57 1188.25 951"/>
        <polygon class="cls-2" points="1157.67 1079.29 1157.67 1018.72 1188.25 951 1218.83 1018.72 1218.83 1079.29 1157.67 1079.29"/>
        <polygon class="cls-3" points="1063.55 1011.57 1063.55 951 1188.25 951 1124.72 1011.57 1063.55 1011.57"/>
        <polygon class="cls-2" points="1188.25 951 1215.84 841.42 1276.99 841.42 1276.99 901.99 1188.25 951"/>
        <polygon class="cls-1" points="1099.51 901.99 1099.51 841.42 1160.66 841.42 1188.25 951 1099.51 901.99"/>
      </g>
      <g>
        <polygon class="cls-3" points="1000 1152.55 875.3 1152.55 875.3 1091.98 936.47 1091.98 1000 1152.55"/>
        <polygon class="cls-1" points="1030.58 1024.26 1030.58 1084.83 1000 1152.55 969.42 1084.83 969.42 1024.26 1030.58 1024.26"/>
        <polygon class="cls-2" points="1124.7 1091.98 1124.7 1152.55 1000 1152.55 1063.53 1091.98 1124.7 1091.98"/>
        <polygon class="cls-2" points="1000 1152.55 972.41 1262.13 911.26 1262.13 911.26 1201.56 1000 1152.55"/>
        <polygon class="cls-1" points="1088.74 1201.56 1088.74 1262.13 1027.59 1262.13 1000 1152.55 1088.74 1201.56"/>
      </g>
      <g>
        <polygon class="cls-2" points="1000 951 1124.7 951 1124.7 1011.57 1063.53 1011.57 1000 951"/>
        <polygon class="cls-1" points="969.42 1079.29 969.42 1018.72 1000 951 1030.58 1018.72 1030.58 1079.29 969.42 1079.29"/>
        <polygon class="cls-1" points="875.3 1011.57 875.3 951 1000 951 936.47 1011.57 875.3 1011.57"/>
        <polygon class="cls-3" points="1000 951 1027.59 841.42 1088.74 841.42 1088.74 901.99 1000 951"/>
        <polygon class="cls-2" points="911.26 901.99 911.26 841.42 972.41 841.42 1000 951 911.26 901.99"/>
      </g>
      <g>
        <polygon class="cls-3" points="1188.25 1371.71 1312.95 1371.71 1312.95 1432.28 1251.78 1432.28 1188.25 1371.71"/>
        <polygon class="cls-2" points="1157.67 1500 1157.67 1439.43 1188.25 1371.71 1218.83 1439.43 1218.83 1500 1157.67 1500"/>
        <polygon class="cls-3" points="1063.55 1432.28 1063.55 1371.71 1188.25 1371.71 1124.72 1432.28 1063.55 1432.28"/>
        <polygon class="cls-2" points="1188.25 1371.71 1215.84 1262.13 1276.99 1262.13 1276.99 1322.7 1188.25 1371.71"/>
        <polygon class="cls-1" points="1099.51 1322.7 1099.51 1262.13 1160.66 1262.13 1188.25 1371.71 1099.51 1322.7"/>
      </g>
      <g>
        <polygon class="cls-2" points="1000 1371.71 1124.7 1371.71 1124.7 1432.28 1063.53 1432.28 1000 1371.71"/>
        <polygon class="cls-1" points="969.42 1500 969.42 1439.43 1000 1371.71 1030.58 1439.43 1030.58 1500 969.42 1500"/>
        <polygon class="cls-1" points="875.3 1432.28 875.3 1371.71 1000 1371.71 936.47 1432.28 875.3 1432.28"/>
        <polygon class="cls-3" points="1000 1371.71 1027.59 1262.13 1088.74 1262.13 1088.74 1322.7 1000 1371.71"/>
        <polygon class="cls-2" points="911.26 1322.7 911.26 1262.13 972.41 1262.13 1000 1371.71 911.26 1322.7"/>
      </g>
      <g>
        <polygon class="cls-1" points="1625.9 311.13 1501.2 311.13 1501.2 250.56 1562.37 250.56 1625.9 311.13"/>
        <polygon class="cls-1" points="1656.48 182.84 1656.48 243.41 1625.9 311.13 1595.32 243.41 1595.32 182.84 1656.48 182.84"/>
        <polygon class="cls-2" points="1750.6 250.56 1750.6 311.13 1625.9 311.13 1689.43 250.56 1750.6 250.56"/>
        <polygon class="cls-1" points="1625.9 311.13 1598.31 420.71 1537.16 420.71 1537.16 360.14 1625.9 311.13"/>
        <polygon class="cls-3" points="1714.64 360.14 1714.64 420.71 1653.49 420.71 1625.9 311.13 1714.64 360.14"/>
      </g>
      <g>
        <polygon class="cls-3" points="1625.9 109.58 1750.6 109.58 1750.6 170.15 1689.43 170.15 1625.9 109.58"/>
        <polygon class="cls-2" points="1595.32 237.87 1595.32 177.3 1625.9 109.58 1656.48 177.3 1656.48 237.87 1595.32 237.87"/>
        <polygon class="cls-3" points="1501.2 170.15 1501.2 109.58 1625.9 109.58 1562.37 170.15 1501.2 170.15"/>
        <polygon class="cls-2" points="1625.9 109.58 1653.49 0 1714.64 0 1714.64 60.57 1625.9 109.58"/>
        <polygon class="cls-1" points="1537.16 60.57 1537.16 0 1598.31 0 1625.9 109.58 1537.16 60.57"/>
      </g>
      <g>
        <polygon class="cls-3" points="1437.65 311.13 1312.95 311.13 1312.95 250.56 1374.12 250.56 1437.65 311.13"/>
        <polygon class="cls-1" points="1468.23 182.84 1468.23 243.41 1437.65 311.13 1407.07 243.41 1407.07 182.84 1468.23 182.84"/>
        <polygon class="cls-2" points="1562.35 250.56 1562.35 311.13 1437.65 311.13 1501.18 250.56 1562.35 250.56"/>
        <polygon class="cls-2" points="1437.65 311.13 1410.06 420.71 1348.91 420.71 1348.91 360.14 1437.65 311.13"/>
        <polygon class="cls-1" points="1526.39 360.14 1526.39 420.71 1465.24 420.71 1437.65 311.13 1526.39 360.14"/>
      </g>
      <g>
        <polygon class="cls-2" points="1437.65 109.58 1562.35 109.58 1562.35 170.15 1501.18 170.15 1437.65 109.58"/>
        <polygon class="cls-1" points="1407.07 237.87 1407.07 177.3 1437.65 109.58 1468.23 177.3 1468.23 237.87 1407.07 237.87"/>
        <polygon class="cls-1" points="1312.95 170.15 1312.95 109.58 1437.65 109.58 1374.12 170.15 1312.95 170.15"/>
        <polygon class="cls-3" points="1437.65 109.58 1465.24 0 1526.39 0 1526.39 60.57 1437.65 109.58"/>
        <polygon class="cls-2" points="1348.91 60.57 1348.91 0 1410.06 0 1437.65 109.58 1348.91 60.57"/>
      </g>
      <g>
        <polygon class="cls-1" points="1625.9 731.84 1501.2 731.84 1501.2 671.27 1562.37 671.27 1625.9 731.84"/>
        <polygon class="cls-1" points="1656.48 603.55 1656.48 664.12 1625.9 731.84 1595.32 664.12 1595.32 603.55 1656.48 603.55"/>
        <polygon class="cls-2" points="1750.6 671.27 1750.6 731.84 1625.9 731.84 1689.43 671.27 1750.6 671.27"/>
        <polygon class="cls-1" points="1625.9 731.84 1598.31 841.42 1537.16 841.42 1537.16 780.85 1625.9 731.84"/>
        <polygon class="cls-3" points="1714.64 780.85 1714.64 841.42 1653.49 841.42 1625.9 731.84 1714.64 780.85"/>
      </g>
      <g>
        <polygon class="cls-3" points="1625.9 530.29 1750.6 530.29 1750.6 590.86 1689.43 590.86 1625.9 530.29"/>
        <polygon class="cls-2" points="1595.32 658.58 1595.32 598.01 1625.9 530.29 1656.48 598.01 1656.48 658.58 1595.32 658.58"/>
        <polygon class="cls-3" points="1501.2 590.86 1501.2 530.29 1625.9 530.29 1562.37 590.86 1501.2 590.86"/>
        <polygon class="cls-2" points="1625.9 530.29 1653.49 420.71 1714.64 420.71 1714.64 481.28 1625.9 530.29"/>
        <polygon class="cls-1" points="1537.16 481.28 1537.16 420.71 1598.31 420.71 1625.9 530.29 1537.16 481.28"/>
      </g>
      <g>
        <polygon class="cls-3" points="1437.65 731.84 1312.95 731.84 1312.95 671.27 1374.12 671.27 1437.65 731.84"/>
        <polygon class="cls-1" points="1468.23 603.55 1468.23 664.12 1437.65 731.84 1407.07 664.12 1407.07 603.55 1468.23 603.55"/>
        <polygon class="cls-2" points="1562.35 671.27 1562.35 731.84 1437.65 731.84 1501.18 671.27 1562.35 671.27"/>
        <polygon class="cls-2" points="1437.65 731.84 1410.06 841.42 1348.91 841.42 1348.91 780.85 1437.65 731.84"/>
        <polygon class="cls-1" points="1526.39 780.85 1526.39 841.42 1465.24 841.42 1437.65 731.84 1526.39 780.85"/>
      </g>
      <g>
        <polygon class="cls-2" points="1437.65 530.29 1562.35 530.29 1562.35 590.86 1501.18 590.86 1437.65 530.29"/>
        <polygon class="cls-1" points="1407.07 658.58 1407.07 598.01 1437.65 530.29 1468.23 598.01 1468.23 658.58 1407.07 658.58"/>
        <polygon class="cls-1" points="1312.95 590.86 1312.95 530.29 1437.65 530.29 1374.12 590.86 1312.95 590.86"/>
        <polygon class="cls-3" points="1437.65 530.29 1465.24 420.71 1526.39 420.71 1526.39 481.28 1437.65 530.29"/>
        <polygon class="cls-2" points="1348.91 481.28 1348.91 420.71 1410.06 420.71 1437.65 530.29 1348.91 481.28"/>
      </g>
      <g>
        <polygon class="cls-1" points="1625.9 1152.55 1501.2 1152.55 1501.2 1091.98 1562.37 1091.98 1625.9 1152.55"/>
        <polygon class="cls-1" points="1656.48 1024.26 1656.48 1084.83 1625.9 1152.55 1595.32 1084.83 1595.32 1024.26 1656.48 1024.26"/>
        <polygon class="cls-2" points="1750.6 1091.98 1750.6 1152.55 1625.9 1152.55 1689.43 1091.98 1750.6 1091.98"/>
        <polygon class="cls-1" points="1625.9 1152.55 1598.31 1262.13 1537.16 1262.13 1537.16 1201.56 1625.9 1152.55"/>
        <polygon class="cls-3" points="1714.64 1201.56 1714.64 1262.13 1653.49 1262.13 1625.9 1152.55 1714.64 1201.56"/>
      </g>
      <g>
        <polygon class="cls-3" points="1625.9 951 1750.6 951 1750.6 1011.57 1689.43 1011.57 1625.9 951"/>
        <polygon class="cls-2" points="1595.32 1079.29 1595.32 1018.72 1625.9 951 1656.48 1018.72 1656.48 1079.29 1595.32 1079.29"/>
        <polygon class="cls-3" points="1501.2 1011.57 1501.2 951 1625.9 951 1562.37 1011.57 1501.2 1011.57"/>
        <polygon class="cls-2" points="1625.9 951 1653.49 841.42 1714.64 841.42 1714.64 901.99 1625.9 951"/>
        <polygon class="cls-1" points="1537.16 901.99 1537.16 841.42 1598.31 841.42 1625.9 951 1537.16 901.99"/>
      </g>
      <g>
        <polygon class="cls-3" points="1437.65 1152.55 1312.95 1152.55 1312.95 1091.98 1374.12 1091.98 1437.65 1152.55"/>
        <polygon class="cls-1" points="1468.23 1024.26 1468.23 1084.83 1437.65 1152.55 1407.07 1084.83 1407.07 1024.26 1468.23 1024.26"/>
        <polygon class="cls-2" points="1562.35 1091.98 1562.35 1152.55 1437.65 1152.55 1501.18 1091.98 1562.35 1091.98"/>
        <polygon class="cls-2" points="1437.65 1152.55 1410.06 1262.13 1348.91 1262.13 1348.91 1201.56 1437.65 1152.55"/>
        <polygon class="cls-1" points="1526.39 1201.56 1526.39 1262.13 1465.24 1262.13 1437.65 1152.55 1526.39 1201.56"/>
      </g>
      <g>
        <polygon class="cls-2" points="1437.65 951 1562.35 951 1562.35 1011.57 1501.18 1011.57 1437.65 951"/>
        <polygon class="cls-1" points="1407.07 1079.29 1407.07 1018.72 1437.65 951 1468.23 1018.72 1468.23 1079.29 1407.07 1079.29"/>
        <polygon class="cls-1" points="1312.95 1011.57 1312.95 951 1437.65 951 1374.12 1011.57 1312.95 1011.57"/>
        <polygon class="cls-3" points="1437.65 951 1465.24 841.42 1526.39 841.42 1526.39 901.99 1437.65 951"/>
        <polygon class="cls-2" points="1348.91 901.99 1348.91 841.42 1410.06 841.42 1437.65 951 1348.91 901.99"/>
      </g>
      <g>
        <polygon class="cls-3" points="1625.9 1371.71 1750.6 1371.71 1750.6 1432.28 1689.43 1432.28 1625.9 1371.71"/>
        <polygon class="cls-2" points="1595.32 1500 1595.32 1439.43 1625.9 1371.71 1656.48 1439.43 1656.48 1500 1595.32 1500"/>
        <polygon class="cls-3" points="1501.2 1432.28 1501.2 1371.71 1625.9 1371.71 1562.37 1432.28 1501.2 1432.28"/>
        <polygon class="cls-2" points="1625.9 1371.71 1653.49 1262.13 1714.64 1262.13 1714.64 1322.7 1625.9 1371.71"/>
        <polygon class="cls-1" points="1537.16 1322.7 1537.16 1262.13 1598.31 1262.13 1625.9 1371.71 1537.16 1322.7"/>
      </g>
      <g>
        <polygon class="cls-2" points="1437.65 1371.71 1562.35 1371.71 1562.35 1432.28 1501.18 1432.28 1437.65 1371.71"/>
        <polygon class="cls-1" points="1407.07 1500 1407.07 1439.43 1437.65 1371.71 1468.23 1439.43 1468.23 1500 1407.07 1500"/>
        <polygon class="cls-1" points="1312.95 1432.28 1312.95 1371.71 1437.65 1371.71 1374.12 1432.28 1312.95 1432.28"/>
        <polygon class="cls-3" points="1437.65 1371.71 1465.24 1262.13 1526.39 1262.13 1526.39 1322.7 1437.65 1371.71"/>
        <polygon class="cls-2" points="1348.91 1322.7 1348.91 1262.13 1410.06 1262.13 1437.65 1371.71 1348.91 1322.7"/>
      </g>
      <g>
        <polygon class="cls-3" points="1875.3 311.13 1750.6 311.13 1750.6 250.56 1811.77 250.56 1875.3 311.13"/>
        <polygon class="cls-1" points="1905.88 182.84 1905.88 243.41 1875.3 311.13 1844.72 243.41 1844.72 182.84 1905.88 182.84"/>
        <polygon class="cls-2" points="2000 250.56 2000 311.13 1875.3 311.13 1938.83 250.56 2000 250.56"/>
        <polygon class="cls-2" points="1875.3 311.13 1847.71 420.71 1786.56 420.71 1786.56 360.14 1875.3 311.13"/>
        <polygon class="cls-1" points="1964.04 360.14 1964.04 420.71 1902.89 420.71 1875.3 311.13 1964.04 360.14"/>
      </g>
      <g>
        <polygon class="cls-2" points="1875.3 109.58 2000 109.58 2000 170.15 1938.83 170.15 1875.3 109.58"/>
        <polygon class="cls-1" points="1844.72 237.87 1844.72 177.3 1875.3 109.58 1905.88 177.3 1905.88 237.87 1844.72 237.87"/>
        <polygon class="cls-1" points="1750.6 170.15 1750.6 109.58 1875.3 109.58 1811.77 170.15 1750.6 170.15"/>
        <polygon class="cls-3" points="1875.3 109.58 1902.89 0 1964.04 0 1964.04 60.57 1875.3 109.58"/>
        <polygon class="cls-2" points="1786.56 60.57 1786.56 0 1847.71 0 1875.3 109.58 1786.56 60.57"/>
      </g>
      <g>
        <polygon class="cls-3" points="1875.3 731.84 1750.6 731.84 1750.6 671.27 1811.77 671.27 1875.3 731.84"/>
        <polygon class="cls-1" points="1905.88 603.55 1905.88 664.12 1875.3 731.84 1844.72 664.12 1844.72 603.55 1905.88 603.55"/>
        <polygon class="cls-2" points="2000 671.27 2000 731.84 1875.3 731.84 1938.83 671.27 2000 671.27"/>
        <polygon class="cls-2" points="1875.3 731.84 1847.71 841.42 1786.56 841.42 1786.56 780.85 1875.3 731.84"/>
        <polygon class="cls-1" points="1964.04 780.85 1964.04 841.42 1902.89 841.42 1875.3 731.84 1964.04 780.85"/>
      </g>
      <g>
        <polygon class="cls-2" points="1875.3 530.29 2000 530.29 2000 590.86 1938.83 590.86 1875.3 530.29"/>
        <polygon class="cls-1" points="1844.72 658.58 1844.72 598.01 1875.3 530.29 1905.88 598.01 1905.88 658.58 1844.72 658.58"/>
        <polygon class="cls-1" points="1750.6 590.86 1750.6 530.29 1875.3 530.29 1811.77 590.86 1750.6 590.86"/>
        <polygon class="cls-3" points="1875.3 530.29 1902.89 420.71 1964.04 420.71 1964.04 481.28 1875.3 530.29"/>
        <polygon class="cls-2" points="1786.56 481.28 1786.56 420.71 1847.71 420.71 1875.3 530.29 1786.56 481.28"/>
      </g>
      <g>
        <polygon class="cls-3" points="1875.3 1152.55 1750.6 1152.55 1750.6 1091.98 1811.77 1091.98 1875.3 1152.55"/>
        <polygon class="cls-1" points="1905.88 1024.26 1905.88 1084.83 1875.3 1152.55 1844.72 1084.83 1844.72 1024.26 1905.88 1024.26"/>
        <polygon class="cls-2" points="2000 1091.98 2000 1152.55 1875.3 1152.55 1938.83 1091.98 2000 1091.98"/>
        <polygon class="cls-2" points="1875.3 1152.55 1847.71 1262.13 1786.56 1262.13 1786.56 1201.56 1875.3 1152.55"/>
        <polygon class="cls-1" points="1964.04 1201.56 1964.04 1262.13 1902.89 1262.13 1875.3 1152.55 1964.04 1201.56"/>
      </g>
      <g>
        <polygon class="cls-2" points="1875.3 951 2000 951 2000 1011.57 1938.83 1011.57 1875.3 951"/>
        <polygon class="cls-1" points="1844.72 1079.29 1844.72 1018.72 1875.3 951 1905.88 1018.72 1905.88 1079.29 1844.72 1079.29"/>
        <polygon class="cls-1" points="1750.6 1011.57 1750.6 951 1875.3 951 1811.77 1011.57 1750.6 1011.57"/>
        <polygon class="cls-3" points="1875.3 951 1902.89 841.42 1964.04 841.42 1964.04 901.99 1875.3 951"/>
        <polygon class="cls-2" points="1786.56 901.99 1786.56 841.42 1847.71 841.42 1875.3 951 1786.56 901.99"/>
      </g>
      <g>
        <polygon class="cls-2" points="1875.3 1371.71 2000 1371.71 2000 1432.28 1938.83 1432.28 1875.3 1371.71"/>
        <polygon class="cls-1" points="1844.72 1500 1844.72 1439.43 1875.3 1371.71 1905.88 1439.43 1905.88 1500 1844.72 1500"/>
        <polygon class="cls-1" points="1750.6 1432.28 1750.6 1371.71 1875.3 1371.71 1811.77 1432.28 1750.6 1432.28"/>
        <polygon class="cls-3" points="1875.3 1371.71 1902.89 1262.13 1964.04 1262.13 1964.04 1322.7 1875.3 1371.71"/>
        <polygon class="cls-2" points="1786.56 1322.7 1786.56 1262.13 1847.71 1262.13 1875.3 1371.71 1786.56 1322.7"/>
      </g>
    </g>
  </g>
</svg>